# xmcd
#
# Track frame offsets:
#	150
#	12505
#	24840
#	36497
#	46512
#	57307
#	69027
#	81322
#	91339
#	101644
#	111479
#	122839
#	131049
#	140979
#	154669
#	162654
#	171062
#	184124
#	197502
#	209097
#	221265
#	239845
#	257212
#	270944
#	284947
#	297514
#	308047
#	324717
#	341732
#
# Disc length: 4735 seconds
#
# Revision: 0
# Processed by: cddbd v1.5.1PL2 Copyright (c) Steve Scherf et al.
# Submitted via: EasyCDDAExtractor 9.0.0.1
#
DISCID=c7127d1d
DTITLE=Johnny Cash - Man in Black (The Very Best of Johnny Cash)
DYEAR=2002
DGENRE=Country
TTITLE0=Jackson (Album Version)
TTITLE1=Folsom Prison Blues (Live)
TTITLE2=Ring of Fire (Album Version)
TTITLE3=Hey Porter (Mono)
TTITLE4=Cry, Cry, Cry (Mono)
TTITLE5=So Doggone Lonesome (Mono)
TTITLE6=I Walk the Line (Album Version)
TTITLE7=Get Rhythm (Mono)
TTITLE8=There You Go (Mono)
TTITLE9=Ballad of a Teenage Queen (Mono)
TTITLE10=Big River (Mono)
TTITLE11=Guess Things Happen that Way (Mono)
TTITLE12=All Over Again (Album Version)
TTITLE13=Don't Take Your Guns to Town (Album Version)
TTITLE14=Five Feet High and Rising (Album Version)
TTITLE15=The Rebel-Johnny Yuma (Album Version)
TTITLE16=Forty Shades of Green (Album Version)
TTITLE17=Tennessee Flat-Top Box (Album Version)
TTITLE18=I Still Miss Someone
TTITLE19=Understand Your Man (Album Version)
TTITLE20=The Ballad of Ira Hayes (Album Version)
TTITLE21=Were You There (When They Crucified My Lord) (Album Version)
TTITLE22=It Ain't Me, Babe
TTITLE23=Orange Blossom Special (Album Version)
TTITLE24=The One on the Right Is on the
TTITLE25=Daddy Sang Bass (Album Version)
TTITLE26=Girl from the North Country (Album Version)
TTITLE27=A Boy Named Sue (Live)
TTITLE28=If I Were a Carpenter (Album Version)
EXTD=
EXTT0=
EXTT1=
EXTT2=
EXTT3=
EXTT4=
EXTT5=
EXTT6=
EXTT7=
EXTT8=
EXTT9=
EXTT10=
EXTT11=
EXTT12=
EXTT13=
EXTT14=
EXTT15=
EXTT16=
EXTT17=
EXTT18=
EXTT19=
EXTT20=
EXTT21=
EXTT22=
EXTT23=
EXTT24=
EXTT25=
EXTT26=
EXTT27=
EXTT28=
PLAYORDER=
